<svg
   width="800px"
   height="800px"
   viewBox="0 0 24 24"
   fill="none"
   version="1.1"
   id="svg1"
   xmlns="http://www.w3.org/2000/svg"
   xmlns:svg="http://www.w3.org/2000/svg">
  <defs
     id="defs1" />
  <path
     d="M 22.012509,0.08052797 H 2.1211412 C 1.8647586,0.06851866 1.6085101,0.10718389 1.3670871,0.19433342 1.125664,0.28148294 0.90380448,0.41538835 0.71418834,0.5883762 0.52458704,0.76137894 0.37095413,0.97008185 0.26211044,1.2025203 0.15326663,1.4349737 0.09132774,1.6866032 0.07985481,1.9430156 V 21.879127 c 0.01501974,0.536546 0.23491185,1.047166 0.61451657,1.426666 0.37960482,0.37965 0.89013502,0.599573 1.42676982,0.614621 H 22.012509 c 0.521645,-0.02324 1.013491,-0.25002 1.370046,-0.631607 0.356555,-0.381586 0.549359,-0.887586 0.537141,-1.40968 V 1.9430156 C 23.924018,1.6934422 23.877231,1.445642 23.78232,1.214783 23.687407,0.98393877 23.546305,0.77490805 23.367655,0.60050472 23.189154,0.42611627 22.976831,0.29005038 22.743796,0.20063607 22.510762,0.11122176 22.261933,0.07035134 22.012509,0.08052797 Z M 7.529805,19.957041 H 4.0581283 V 9.3334112 H 7.529805 Z M 5.8759162,7.7241772 C 5.6336588,7.7326254 5.3922655,7.6908759 5.1669194,7.6015659 4.9415584,7.5122559 4.737102,7.3773075 4.5664087,7.2051988 4.3957005,7.0330899 4.262421,6.8275458 4.1749584,6.6014696 4.0874812,6.3753934 4.0477134,6.1336723 4.0581283,5.8914894 4.0474154,5.646684 4.0879878,5.4023554 4.1772531,5.1741635 4.2665184,4.9459565 4.4024948,4.7389373 4.5764512,4.5663816 4.7504225,4.3938109 4.9585294,4.2595181 5.1874366,4.1721152 5.4163586,4.0846976 5.661015,4.0461068 5.9057161,4.0588015 6.1479735,4.0503641 6.3893668,4.0921034 6.614713,4.1814129 6.8400739,4.2707235 7.0445304,4.4056712 7.2152237,4.57778 7.3859315,4.7498887 7.519211,4.9554328 7.6066738,5.181509 7.6941473,5.4075853 7.7339191,5.6493064 7.7235046,5.8914894 7.7342758,6.1362947 7.6936447,6.3806233 7.604376,6.6088153 7.5151144,6.8370222 7.3791373,7.0440414 7.2051812,7.2165971 7.0312099,7.3891678 6.8231029,7.5234606 6.5941958,7.6108634 6.3652737,7.6982812 6.1206174,7.7368718 5.8759162,7.7241772 Z M 19.956323,19.957041 H 16.469746 V 14.14608 c 0,-1.385692 -0.491697,-2.339285 -1.728388,-2.339285 -0.38412,0.0033 -0.757958,0.125308 -1.069962,0.349402 -0.312153,0.224095 -0.547274,0.539228 -0.673327,0.902189 -0.09685,0.272073 -0.137378,0.560982 -0.119201,0.849295 v 6.04936 H 9.4518925 V 9.3334112 h 3.4269765 v 1.4899898 c 0.304704,-0.559789 0.758107,-1.0243679 1.310299,-1.3426298 0.55219,-0.3181129 1.181561,-0.4774227 1.818681,-0.4603027 2.249885,0 3.948474,1.4900345 3.948474,4.6637145 z"
     fill="#1f2937"
     id="path1"
     style="stroke-width:1.48999" />
</svg>
