<svg width="47" height="121" viewBox="0 0 47 121" fill="none" xmlns="http://www.w3.org/2000/svg">
<path d="M5.15838 78V19.8182H43.6811V29.9602H17.4595V43.8239H41.1243V53.9659H17.4595V78H5.15838Z" fill="#153448"/>
<path d="M29.5398 43.8182H41.6989V84.3864C41.6989 88.1364 40.8561 91.3939 39.1705 94.1591C37.5038 96.9242 35.1837 99.0549 32.2102 100.551C29.2367 102.047 25.7803 102.795 21.8409 102.795C18.3371 102.795 15.1553 102.18 12.2955 100.949C9.45455 99.6989 7.20076 97.8049 5.53409 95.267C3.86742 92.7102 3.04356 89.5 3.0625 85.6364H15.3068C15.3447 87.1705 15.6572 88.4867 16.2443 89.5852C16.8504 90.6648 17.6742 91.4981 18.7159 92.0852C19.7765 92.6534 21.0265 92.9375 22.4659 92.9375C23.9811 92.9375 25.2595 92.6155 26.3011 91.9716C27.3617 91.3087 28.1667 90.3428 28.7159 89.0739C29.2652 87.8049 29.5398 86.2424 29.5398 84.3864V43.8182Z" fill="#153448"/>
</svg>
