<svg width="43" height="44" viewBox="0 0 43 44" fill="none" xmlns="http://www.w3.org/2000/svg">
<path fill-rule="evenodd" clip-rule="evenodd" d="M21.4359 0.945816C9.58242 0.945816 0 10.7415 0 22.8602C0 32.5472 6.13978 40.7472 14.6573 43.6494C15.7222 43.8675 16.1123 43.1778 16.1123 42.5976C16.1123 42.0896 16.0772 40.3482 16.0772 38.5338C10.1142 39.8402 8.87248 35.9214 8.87248 35.9214C7.91419 33.3817 6.49432 32.7289 6.49432 32.7289C4.54264 31.3864 6.63648 31.3865 6.63648 31.3865C8.8014 31.5316 9.93739 33.6359 9.93739 33.6359C11.8535 36.9736 14.9412 36.0305 16.1834 35.4499C16.3606 34.0349 16.9288 33.0553 17.5322 32.5112C12.7763 32.0031 7.77247 30.1166 7.77247 21.6989C7.77247 19.3043 8.62369 17.3452 9.97249 15.8215C9.75968 15.2774 9.0142 13.0275 10.1857 10.0162C10.1857 10.0162 11.9957 9.43559 16.0767 12.2657C17.824 11.786 19.6259 11.5419 21.4359 11.5399C23.2459 11.5399 25.0909 11.7941 26.7947 12.2657C30.8762 9.43559 32.6861 10.0162 32.6861 10.0162C33.8577 13.0275 33.1118 15.2774 32.8989 15.8215C34.2833 17.3452 35.0994 19.3043 35.0994 21.6989C35.0994 30.1166 30.0956 31.9666 25.3042 32.5112C26.0852 33.2004 26.7592 34.5064 26.7592 36.5746C26.7592 39.5133 26.7241 41.8719 26.7241 42.5972C26.7241 43.1778 27.1146 43.8675 28.179 43.6498C36.6966 40.7467 42.8363 32.5472 42.8363 22.8602C42.8714 10.7415 33.2539 0.945816 21.4359 0.945816Z" fill="#153448"/>
</svg>
